# xmcd
#
# Track frame offsets:
#	182
#	13322
#	25555
#	35662
#	47030
#	59615
#	73365
#	85675
#	97652
#	108325
#
# Disc length: 1608 seconds
#
# Revision: 0
# Processed by: cddbd v1.4PL0 Copyright (c) Steve Scherf et al.
# Submitted via: dBpowerAMP V4.0
#
DISCID=7e06460a
DTITLE=GEORGE JONES - FINE COUNTRY WINE 
DYEAR=1900
DGENRE=Country
TTITLE0=PRAYING FOR THE DAYS OF WINE AND ROSES
TTITLE1=LATE GETTING HOME 
TTITLE2=HEARTACHES AND HANGOVERS 
TTITLE3=BETWEEN MY HOUSE AND TOWN
TTITLE4=BROTHERS OF A BOTTLE 
TTITLE5=A GOOD YEAR FOR THE ROSES 
TTITLE6=MY FAVORITE LIES 
TTITLE7=IF YOU WON'T TELL ON ME 
TTITLE8=SOMETIMES YOU JUST CAN'T WIN
TTITLE9=A LIFETIME TO REGRET
EXTD=
EXTT0=
EXTT1=
EXTT2=
EXTT3=
EXTT4=
EXTT5=
EXTT6=
EXTT7=
EXTT8=
EXTT9=
PLAYORDER=
